<svg width="17" height="12" viewBox="0 0 17 12" fill="none" xmlns="http://www.w3.org/2000/svg">
  <path d="M16.3565 5.14416C16.2896 5.04947 14.7077 2.78839 12.5217 1.244C11.3903 0.440788 9.96185 0 8.50071 0C7.04122 0 5.61273 0.440788 4.47648 1.244C2.29213 2.78839 0.710191 5.04784 0.643256 5.14416C0.452248 5.41843 0.452248 5.78249 0.643256 6.05676C0.710191 6.15144 2.2905 8.41253 4.47648 9.95692C5.6111 10.7585 7.04122 11.1993 8.50071 11.1993C9.96185 11.1993 11.3903 10.7585 12.5233 9.95528C14.7077 8.41089 16.2912 6.15144 16.3582 6.05512C16.5475 5.78249 16.5475 5.4168 16.3565 5.14416ZM8.50071 8.39946C6.95306 8.39946 5.70089 7.14403 5.70089 5.59964C5.70089 4.05199 6.95306 2.79982 8.50071 2.79982C10.0451 2.79982 11.3005 4.05199 11.3005 5.59964C11.3005 7.14403 10.0451 8.39946 8.50071 8.39946Z" fill="#0E3E6A"/>
  <path d="M10.1006 5.59964C10.1006 6.48122 9.38229 7.19954 8.50071 7.19954C7.61751 7.19954 6.90082 6.48122 6.90082 5.59964C6.90082 4.71643 7.61751 3.99974 8.50071 3.99974C9.38229 3.99974 10.1006 4.71643 10.1006 5.59964Z" fill="#0E3E6A"/>
</svg>
