<?xml version="1.0" encoding="utf-8"?>
<!-- Svg Vector Icons : http://www.onlinewebfonts.com/icon -->
<!DOCTYPE svg PUBLIC "-//W3C//DTD SVG 1.1//EN" "http://www.w3.org/Graphics/SVG/1.1/DTD/svg11.dtd">
<svg version="1.1" xmlns="http://www.w3.org/2000/svg" xmlns:xlink="http://www.w3.org/1999/xlink" x="0px" y="0px" viewBox="0 0 1000 1000" enable-background="new 0 0 1000 1000" xml:space="preserve">
<metadata> Svg Vector Icons : http://www.onlinewebfonts.com/icon </metadata>
<g><g><path d="M981.2,472.1c-4.1-5.8-101-144.3-234.9-238.9C677,184,589.5,157,500,157c-89.4,0-176.9,27-246.5,76.2c-133.8,94.6-230.7,233-234.8,238.9c-11.7,16.8-11.7,39.1,0,55.9c4.1,5.8,100.9,144.3,234.8,238.9C323,816,410.6,843,500,843c89.5,0,177-27,246.4-76.2c133.8-94.6,230.8-233,234.9-238.9C992.9,511.2,992.9,488.8,981.2,472.1z M500,671.5c-94.8,0-171.5-76.9-171.5-171.5c0-94.8,76.7-171.5,171.5-171.5c94.6,0,171.5,76.7,171.5,171.5C671.5,594.6,594.6,671.5,500,671.5z"/><path d="M598,500c0,54-44,98-98,98c-54.1,0-98-44-98-98c0-54.1,43.9-98,98-98C554,402,598,445.9,598,500z"/></g></g>
</svg>